<svg width="216" height="42" viewBox="0 0 216 42" fill="none" xmlns="http://www.w3.org/2000/svg">
<path d="M24.3732 23.3728L12.2538 40.9999V25.7457L23.9404 8.45752H36.0598L47.7463 25.7457V40.9999L35.6269 23.3728V18.627H24.3732V23.3728Z" fill="url(#paint0_linear_5_205)"/>
<path d="M1 1V41H12.2537V17.9492L27.403 36.9322H32.597L47.7463 17.2712V41H59V1H49.0448L30 26.0847L10.9552 1H1Z" fill="url(#paint1_linear_5_205)" stroke="white"/>
<g clip-path="url(#clip0_5_205)">
<path d="M79.288 40V35.344L78.52 34.096V25.264C78.52 23.984 78.12 23.008 77.32 22.336C76.552 21.664 75.288 21.328 73.528 21.328C72.344 21.328 71.144 21.52 69.928 21.904C68.712 22.256 67.672 22.752 66.808 23.392L63.352 16.24C64.888 15.28 66.728 14.544 68.872 14.032C71.016 13.52 73.112 13.264 75.16 13.264C79.672 13.264 83.16 14.272 85.624 16.288C88.12 18.304 89.368 21.504 89.368 25.888V40H79.288ZM71.848 40.48C69.704 40.48 67.912 40.112 66.472 39.376C65.032 38.64 63.944 37.664 63.208 36.448C62.472 35.2 62.104 33.824 62.104 32.32C62.104 30.624 62.536 29.184 63.4 28C64.264 26.816 65.576 25.92 67.336 25.312C69.128 24.704 71.384 24.4 74.104 24.4H79.576V29.632H75.832C74.68 29.632 73.832 29.824 73.288 30.208C72.776 30.56 72.52 31.104 72.52 31.84C72.52 32.448 72.744 32.96 73.192 33.376C73.672 33.76 74.312 33.952 75.112 33.952C75.848 33.952 76.52 33.76 77.128 33.376C77.768 32.96 78.232 32.32 78.52 31.456L79.912 34.672C79.496 36.624 78.616 38.08 77.272 39.04C75.928 40 74.12 40.48 71.848 40.48ZM103.128 35.68L103.368 22.912L112.44 13.744H125.256L113.256 26.32L107.832 30.688L103.128 35.68ZM94.0563 40V4.38404H104.904V40H94.0563ZM113.016 40L105.816 30.88L112.488 22.672L126.12 40H113.016ZM137.61 40.48C135.37 40.48 133.162 40.24 130.986 39.76C128.81 39.28 127.05 38.656 125.706 37.888L128.682 30.736C129.93 31.472 131.37 32.048 133.002 32.464C134.666 32.88 136.282 33.088 137.85 33.088C139.162 33.088 140.042 32.976 140.49 32.752C140.97 32.528 141.21 32.224 141.21 31.84C141.21 31.456 140.938 31.184 140.394 31.024C139.85 30.832 139.13 30.688 138.234 30.592C137.338 30.496 136.346 30.384 135.258 30.256C134.202 30.096 133.13 29.872 132.042 29.584C130.954 29.296 129.962 28.864 129.066 28.288C128.17 27.712 127.45 26.944 126.906 25.984C126.362 24.992 126.09 23.744 126.09 22.24C126.09 20.576 126.586 19.072 127.578 17.728C128.602 16.384 130.106 15.312 132.09 14.512C134.106 13.68 136.586 13.264 139.53 13.264C141.45 13.264 143.37 13.44 145.29 13.792C147.21 14.144 148.858 14.688 150.234 15.424L147.258 22.576C145.914 21.84 144.586 21.344 143.274 21.088C141.994 20.8 140.794 20.656 139.674 20.656C138.298 20.656 137.354 20.784 136.842 21.04C136.362 21.296 136.122 21.584 136.122 21.904C136.122 22.288 136.394 22.576 136.938 22.768C137.482 22.96 138.202 23.104 139.098 23.2C139.994 23.296 140.97 23.424 142.026 23.584C143.114 23.712 144.186 23.936 145.242 24.256C146.33 24.544 147.322 24.976 148.218 25.552C149.114 26.128 149.834 26.912 150.378 27.904C150.922 28.864 151.194 30.096 151.194 31.6C151.194 33.168 150.698 34.64 149.706 36.016C148.714 37.36 147.21 38.448 145.194 39.28C143.178 40.08 140.65 40.48 137.61 40.48ZM154.478 40V13.744H165.326V40H154.478ZM159.902 11.632C157.918 11.632 156.334 11.104 155.15 10.048C153.966 8.99204 153.374 7.68004 153.374 6.11204C153.374 4.54404 153.966 3.23204 155.15 2.17604C156.334 1.12004 157.918 0.592041 159.902 0.592041C161.886 0.592041 163.47 1.08804 164.654 2.08004C165.838 3.07204 166.43 4.35204 166.43 5.92004C166.43 7.58404 165.838 8.96004 164.654 10.048C163.47 11.104 161.886 11.632 159.902 11.632ZM204.886 13.264C206.87 13.264 208.646 13.68 210.214 14.512C211.814 15.312 213.062 16.576 213.958 18.304C214.886 20.032 215.35 22.272 215.35 25.024V40H204.502V26.896C204.502 25.264 204.23 24.112 203.686 23.44C203.142 22.736 202.438 22.384 201.574 22.384C200.934 22.384 200.358 22.544 199.846 22.864C199.334 23.184 198.918 23.696 198.598 24.4C198.31 25.072 198.166 26 198.166 27.184V40H187.318V26.896C187.318 25.264 187.062 24.112 186.55 23.44C186.038 22.736 185.318 22.384 184.39 22.384C183.75 22.384 183.174 22.544 182.662 22.864C182.15 23.184 181.734 23.696 181.414 24.4C181.126 25.072 180.982 26 180.982 27.184V40H170.134V13.744H180.454V21.28L178.342 19.168C179.334 17.184 180.662 15.712 182.326 14.752C183.99 13.76 185.846 13.264 187.894 13.264C190.198 13.264 192.23 13.872 193.99 15.088C195.782 16.272 196.982 18.16 197.59 20.752L194.278 20.224C195.238 18.048 196.63 16.352 198.454 15.136C200.31 13.888 202.454 13.264 204.886 13.264Z" fill="url(#paint2_linear_5_205)"/>
</g>
<defs>
<linearGradient id="paint0_linear_5_205" x1="30.0001" y1="8.45752" x2="30.0001" y2="40.9999" gradientUnits="userSpaceOnUse">
<stop stop-color="#DB560C"/>
<stop offset="1" stop-color="#391603"/>
</linearGradient>
<linearGradient id="paint1_linear_5_205" x1="30" y1="1" x2="30" y2="41" gradientUnits="userSpaceOnUse">
<stop stop-color="#FCC433"/>
<stop offset="1" stop-color="#FFD975"/>
</linearGradient>
<linearGradient id="paint2_linear_5_205" x1="139.5" y1="-6.99996" x2="139.5" y2="40" gradientUnits="userSpaceOnUse">
<stop stop-color="#FDC841"/>
<stop offset="1" stop-color="#FFD872"/>
</linearGradient>
<clipPath id="clip0_5_205">
<rect width="154" height="41" fill="white" transform="translate(62)"/>
</clipPath>
</defs>
</svg>
